<?xml version="1.0" encoding="utf-8"?>
<!-- Generator: Adobe Illustrator 16.0.0, SVG Export Plug-In . SVG Version: 6.00 Build 0)  -->
<!DOCTYPE svg PUBLIC "-//W3C//DTD SVG 1.1//EN" "http://www.w3.org/Graphics/SVG/1.1/DTD/svg11.dtd">
<svg version="1.1" id="Layer_1" xmlns="http://www.w3.org/2000/svg" xmlns:xlink="http://www.w3.org/1999/xlink" x="0px" y="0px"
	 width="80.717px" height="100px" viewBox="9.642 0 80.717 100" enable-background="new 9.642 0 80.717 100" xml:space="preserve">
<path fill="#181818" d="M84.569,31.401c0.13-0.549,0.22-1.111,0.22-1.697c0-5.406-2.858-9.516-8.433-12.252
	C75.503,8.334,64.463,0,52.78,0c-0.419,0-1.688,0-2.463,0.959c-0.776,0.968-0.516,2.172-0.307,3.139
	c0.08,0.367,0.245,1.134,0.15,1.313c-0.021,0.028-0.154,0.117-0.472,0.19c-0.271,0.062-1.256,0.13-2.206,0.196
	c-6.306,0.436-22.642,1.598-23.81,11.64c-5.599,2.737-8.464,6.849-8.464,12.267c0,0.538,0.065,1.112,0.212,1.708
	c-3.766,3.666-5.779,7.703-5.779,11.728c0,0.065,0.025,0.13,0.025,0.196c0.003,0.022-0.003,0.041,0,0.06l0.028,0.144
	c0.031,0.517,0.127,1.027,0.283,1.527l8.039,42.861c0.013,0.078,0.053,0.145,0.081,0.215c0.02,0.052,0.017,0.104,0.041,0.153
	c0.015,0.026,0.033,0.053,0.045,0.078c0.006,0.009,0.01,0.018,0.014,0.023C21.192,94.19,32.139,100,50,100
	c17.86,0,28.809-5.81,31.802-11.603c0.004-0.006,0.007-0.015,0.013-0.023c0.015-0.027,0.032-0.052,0.047-0.078
	c0.026-0.049,0.023-0.102,0.04-0.153c0.028-0.07,0.068-0.137,0.081-0.215l8.039-42.861c0.154-0.5,0.252-1.01,0.282-1.527
	l0.029-0.144c0.003-0.019-0.003-0.037,0-0.06c0-0.065,0.025-0.13,0.025-0.196C90.355,39.112,88.343,35.069,84.569,31.401z
	 M16.681,34.068c1.54,2.136,4.534,4.305,10.086,6c0.136,0.04,0.273,0.06,0.405,0.06c0.596,0,1.148-0.387,1.33-0.987
	c0.222-0.733-0.19-1.511-0.927-1.737c-3.579-1.09-9.586-3.539-9.586-7.699c0-4.019,1.965-7.067,5.967-9.293
	c0.625,1.5,2.14,3.218,5.541,4.787c0.7,0.317,1.524,0.02,1.848-0.68c0.32-0.7,0.016-1.524-0.68-1.849
	c-2.75-1.269-4.327-2.761-4.327-4.099c0-8.52,15.497-9.595,21.334-9.999c1.452-0.101,2.169-0.153,2.633-0.258
	c3.301-0.753,2.686-3.592,2.421-4.805c-0.045-0.216-0.106-0.502-0.136-0.72c0.051-0.003,0.113-0.006,0.188-0.006
	c10.537,0,20.873,7.82,20.873,15.79c0,1.438-1.876,3.084-5.016,4.402c-0.712,0.297-1.044,1.112-0.745,1.821
	c0.222,0.533,0.738,0.854,1.281,0.854c0.18,0,0.361-0.036,0.536-0.109c3.946-1.655,5.655-3.512,6.329-5.131
	c3.998,2.227,5.964,5.279,5.964,9.295c0,4.683-7.928,8.445-20.69,9.819c-0.764,0.082-1.317,0.771-1.234,1.534
	c0.076,0.711,0.68,1.241,1.381,1.241c0.051,0,0.101-0.001,0.154-0.007c11.304-1.218,18.756-4.075,21.722-8.207
	c2.75,2.904,4.203,5.974,4.231,8.962l-0.264,1.402c-2.048,5.544-16.78,11.214-37.304,11.214s-35.256-5.668-37.305-11.214
	l-0.265-1.402C12.459,40.053,13.915,36.976,16.681,34.068z M49.999,97.217c-16.542,0-26.729-5.178-29.292-10.035l-6.989-37.266
	c6.486,5.093,20.112,8.535,36.281,8.535c16.169,0,29.795-3.441,36.281-8.535l-6.99,37.266
	C76.728,92.036,66.542,97.217,49.999,97.217z"/>
<path d="M43.533,38.021c2.054,0.294,4.229,0.443,6.467,0.443c2.323,0,4.585-0.161,6.721-0.481c0.51-0.075,0.863-0.553,0.787-1.066
	c-0.074-0.513-0.55-0.858-1.066-0.787c-4.008,0.599-8.632,0.609-12.642,0.035c-0.511-0.061-0.988,0.282-1.062,0.794
	C42.664,37.471,43.02,37.948,43.533,38.021z"/>
<path d="M40.625,68.75c1.034,0,1.875-1.26,1.875-2.813c0-0.885-0.278-1.664-0.703-2.178l-2.984,1.491
	c-0.037,0.222-0.062,0.448-0.062,0.687C38.75,67.49,39.589,68.75,40.625,68.75z"/>
<path d="M59.375,68.75c1.036,0,1.875-1.26,1.875-2.813c0-0.237-0.025-0.465-0.063-0.687l-2.983-1.491
	c-0.425,0.514-0.703,1.291-0.703,2.178C57.5,67.49,58.341,68.75,59.375,68.75z"/>
<path d="M61.25,73.438c-1.326,0-2.027,0.701-2.538,1.213c-0.459,0.459-0.685,0.662-1.212,0.662s-0.753-0.203-1.212-0.662
	c-0.511-0.512-1.212-1.213-2.538-1.213s-2.027,0.701-2.538,1.213c-0.459,0.459-0.685,0.662-1.212,0.662
	c-0.527,0-0.753-0.203-1.212-0.662c-0.511-0.512-1.212-1.213-2.538-1.213s-2.027,0.701-2.538,1.213
	c-0.459,0.459-0.685,0.662-1.212,0.662s-0.753-0.203-1.212-0.662c-0.511-0.512-1.212-1.213-2.538-1.213
	c-0.519,0-0.938,0.42-0.938,0.938s0.419,0.938,0.938,0.938c0.527,0,0.753,0.203,1.212,0.662c0.511,0.512,1.212,1.213,2.538,1.213
	s2.027-0.701,2.538-1.213c0.459-0.459,0.685-0.662,1.212-0.662s0.753,0.203,1.212,0.662c0.511,0.512,1.212,1.213,2.538,1.213
	s2.027-0.701,2.538-1.213c0.459-0.459,0.685-0.662,1.212-0.662s0.753,0.203,1.212,0.662c0.511,0.512,1.212,1.213,2.538,1.213
	s2.027-0.701,2.538-1.213c0.459-0.459,0.685-0.662,1.212-0.662c0.52,0,0.938-0.42,0.938-0.938S61.77,73.438,61.25,73.438z"/>
</svg>
