<?xml version="1.0" encoding="utf-8"?>
<!-- Generator: Adobe Illustrator 16.0.0, SVG Export Plug-In . SVG Version: 6.00 Build 0)  -->
<!DOCTYPE svg PUBLIC "-//W3C//DTD SVG 1.1//EN" "http://www.w3.org/Graphics/SVG/1.1/DTD/svg11.dtd">
<svg version="1.1" id="Layer_1" xmlns="http://www.w3.org/2000/svg" xmlns:xlink="http://www.w3.org/1999/xlink" x="0px" y="0px"
	 width="64px" height="64px" viewBox="0 0 64 64" style="enable-background:new 0 0 64 64;" xml:space="preserve">
<path d="M24.875,24.083h11.084v3.167v19h3.166V51h-14.25v-4.75h3.167V28.833h-3.167V24.083z M32,13c2.188,0,3.959,1.772,3.959,3.958
	c0,2.186-1.771,3.958-3.959,3.958c-2.186,0-3.958-1.772-3.958-3.958C28.042,14.772,29.814,13,32,13z"/>
<g>
	<path d="M32,4c15.439,0,28,12.561,28,28S47.439,60,32,60C16.561,60,4,47.439,4,32S16.561,4,32,4 M32,0C14.327,0,0,14.327,0,32
		c0,17.673,14.327,32,32,32c17.673,0,32-14.327,32-32C64,14.327,49.674,0,32,0L32,0z"/>
</g>
</svg>
