<?xml version="1.0" encoding="utf-8"?>
<!-- Generator: Adobe Illustrator 16.0.0, SVG Export Plug-In . SVG Version: 6.00 Build 0)  -->
<!DOCTYPE svg PUBLIC "-//W3C//DTD SVG 1.1//EN" "http://www.w3.org/Graphics/SVG/1.1/DTD/svg11.dtd">
<svg version="1.1" id="Your_Icon" xmlns="http://www.w3.org/2000/svg" xmlns:xlink="http://www.w3.org/1999/xlink" x="0px" y="0px"
	 width="63.888px" height="100px" viewBox="18.056 0 63.888 100" enable-background="new 18.056 0 63.888 100" xml:space="preserve"
	>
<g>
	<g>
		<path d="M50.659,37.236c4.546,0,8.233-3.686,8.233-8.233c0-4.545-3.688-8.231-8.233-8.231c-4.544,0-8.23,3.686-8.23,8.231
			C42.43,33.548,46.116,37.236,50.659,37.236z"/>
		<path d="M80.798,43.177c-1.488-1.445-3.875-1.415-5.327,0.081l-5.513,5.681l-9.87-6.966c-0.636-0.449-1.395-0.69-2.173-0.69
			H43.341c-0.633,0-1.255,0.16-1.81,0.463L30.247,47.93l-5.708-5.942c-1.439-1.498-3.824-1.547-5.326-0.107
			c-1.5,1.442-1.548,3.827-0.105,5.327l7.706,8.022c1.18,1.227,3.027,1.516,4.519,0.692l9.708-5.324v45.637
			c0,2.08,1.278,3.766,3.358,3.766s3.358-1.686,3.358-3.766V68.153h4.479v28.081c0,2.08,1.277,3.766,3.358,3.766
			c2.08,0,3.359-1.686,3.359-3.766V50.346l9.326,6.606c0.656,0.462,1.399,0.688,2.156,0.688c0.988,0,1.962-0.39,2.694-1.143
			l7.754-7.993C82.331,47.012,82.292,44.627,80.798,43.177z"/>
	</g>
	<g>
		<path d="M48.402,7.9c0-2.428,3.024-2.716,3.024-4.136c0-0.638-0.493-1.173-1.624-1.173c-1.028,0-1.894,0.494-2.531,1.276
			l-1.666-1.872C46.695,0.699,48.342,0,50.11,0c2.657,0,4.28,1.336,4.28,3.25c0,3.004-3.437,3.23-3.437,4.959
			c0,0.328,0.165,0.678,0.392,0.863L49.083,9.73C48.648,9.258,48.402,8.62,48.402,7.9z M48.402,12.488
			c0-0.905,0.761-1.666,1.666-1.666c0.907,0,1.667,0.762,1.667,1.666c0,0.905-0.76,1.666-1.667,1.666
			C49.162,14.154,48.402,13.393,48.402,12.488z"/>
	</g>
</g>
</svg>
